<?xml version="1.0" standalone="no"?>
<svg xmlns="http://www.w3.org/2000/svg" viewBox="0 0 141.1 28.42" width="141.1" height="28.42"><path fill="#01427c" fill-rule="nonzero" d="M9.85 17.17Q8.99 17.86 7.62 18.23Q6.25 18.61 4.25 18.61Q2.25 18.61 0 18.25L0 18.25L0 2.80Q2.27 2.44 3.94 2.44Q5.61 2.44 6.69 2.75Q7.76 3.07 8.44 3.61L8.44 3.61Q9.77 4.65 9.77 6.31Q9.77 7.97 8.57 9.06L8.57 9.06Q10.00 9.50 10.78 10.75L10.78 10.75Q11.50 11.86 11.50 13.21Q11.50 14.57 11.10 15.53Q10.71 16.49 9.85 17.17ZM3.11 4.97L3.11 8.63Q3.60 8.71 4.34 8.71Q5.07 8.71 5.55 8.51Q6.02 8.32 6.28 8.03L6.28 8.03Q6.70 7.55 6.70 6.69L6.70 6.69Q6.70 4.90 4.59 4.90L4.59 4.90Q3.70 4.90 3.11 4.97L3.11 4.97ZM4.84 11.13L4.84 11.13Q3.86 11.13 3.11 11.26L3.11 11.26L3.11 15.87Q3.93 16.08 4.83 16.08Q5.73 16.08 6.42 15.86Q7.10 15.64 7.57 15.27L7.57 15.27Q8.52 14.50 8.52 13.30L8.52 13.30Q8.52 11.13 4.84 11.13ZM16.50 9.79L16.50 17.00Q16.50 18.01 16.55 18.32L16.55 18.32L13.63 18.32L13.63 6.07L16.50 6.07L16.50 6.97Q17.50 5.84 18.59 5.84Q19.69 5.84 20.32 6.11L20.32 6.11L20.11 9.26L20.06 9.29Q19.65 8.57 18.36 8.57L18.36 8.57Q17.87 8.57 17.36 8.90Q16.85 9.23 16.50 9.79L16.50 9.79ZM20.86 12.26L20.86 12.26Q20.86 10.97 21.30 9.79Q21.74 8.61 22.56 7.73L22.56 7.73Q24.35 5.84 27.21 5.84L27.21 5.84Q30.06 5.84 31.73 7.63L31.73 7.63Q33.34 9.34 33.34 12.07L33.34 12.07Q33.34 14.80 31.69 16.59L31.69 16.59Q29.94 18.49 27.06 18.49L27.06 18.49Q24.08 18.49 22.39 16.63L22.39 16.63Q20.86 14.93 20.86 12.26ZM23.71 12.19L23.71 12.19Q23.71 12.93 23.95 13.62Q24.20 14.31 24.66 14.80L24.66 14.80Q25.63 15.87 27.21 15.87L27.21 15.87Q28.68 15.87 29.52 14.82L29.52 14.82Q30.34 13.82 30.34 12.20L30.34 12.20Q30.34 10.56 29.50 9.55L29.50 9.55Q28.59 8.47 27.02 8.47L27.02 8.47Q25.43 8.47 24.53 9.62L24.53 9.62Q23.71 10.68 23.71 12.19ZM39.06 13.57L39.06 18.39Q38.25 18.32 37.00 18.32L37.00 18.32L36.07 18.32L36.07 2.68L36.54 2.71Q37.03 2.73 37.28 2.73L37.28 2.73L37.62 2.73Q38.65 2.73 39.06 2.64L39.06 2.64L39.06 9.26L43.80 2.68Q44.55 2.73 45.07 2.73L45.07 2.73L45.71 2.73Q46.92 2.73 47.44 2.64L47.44 2.64L42.91 8.54L47.37 17.38Q47.65 18.02 47.89 18.32L47.89 18.32L47.18 18.32Q44.71 18.32 44.10 18.41L44.10 18.41Q43.97 17.63 43.75 17.04L43.75 17.04L40.76 11.34L39.06 13.57ZM59.61 16.93L59.61 16.93Q57.68 18.61 54.94 18.61L54.94 18.61Q52.24 18.61 50.48 17.00L50.48 17.00Q48.76 15.45 48.76 13.14L48.76 13.14Q48.76 11.05 50.57 9.67L50.57 9.67Q51.11 9.25 51.73 8.96L51.73 8.96Q51.06 7.84 51.06 6.76Q51.06 5.68 51.41 4.92Q51.76 4.16 52.38 3.61L52.38 3.61Q53.71 2.44 55.78 2.44L55.78 2.44Q57.26 2.44 58.49 3.14L58.49 3.14Q58.43 4.14 58.43 4.68L58.43 4.68Q58.43 5.41 58.45 5.60Q58.46 5.79 58.46 5.87Q58.45 5.94 58.44 5.99L58.44 5.99Q58.39 6.06 58.42 6.15L58.42 6.15L58.36 6.23Q57.89 5.53 56.54 5.23L56.54 5.23Q56.13 5.13 55.49 5.13Q54.84 5.13 54.43 5.52Q54.01 5.91 54.01 6.49L54.01 6.49Q54.01 7.50 55.44 9.06L55.44 9.06Q55.89 9.55 56.52 10.17L56.52 10.17L59.27 12.69Q59.65 11.67 59.65 10.55L59.65 10.55Q59.65 9.86 59.30 9.40L59.30 9.40Q59.21 9.29 59.17 9.26L59.17 9.26L59.17 9.12L60.87 9.80Q61.36 10.00 61.66 10.10Q61.97 10.21 62.12 10.28L62.12 10.28Q62.39 10.39 62.39 10.54L62.39 10.54Q62.39 12.64 61.44 14.54L61.44 14.54Q62.64 15.53 62.98 15.66Q63.32 15.79 63.49 15.81L63.49 15.81Q64.05 15.88 64.15 15.76L64.15 15.76L64.21 15.83L63 18.47Q62.80 18.61 62.32 18.61L62.32 18.61Q61.58 18.61 59.61 16.93ZM52.68 14.95Q53.65 15.80 55.01 15.80Q56.38 15.80 57.47 15.05L57.47 15.05L56.20 13.89Q54.18 12.05 52.98 10.68L52.98 10.68Q51.70 11.60 51.70 12.86Q51.70 14.11 52.68 14.95ZM74.21 8.68L74.25 11.58Q73.69 11.52 72.80 11.52L72.80 11.52L69.25 11.52L69.25 18.32L66.04 18.32L66.04 2.65Q66.35 2.67 66.76 2.68L66.76 2.68L67.63 2.71Q68.52 2.73 69.48 2.73L69.48 2.73Q72.36 2.73 74.99 2.64L74.99 2.64Q74.86 3.67 74.86 5.39L74.86 5.39Q74.86 5.58 74.88 5.67L74.88 5.67L74.86 5.71Q74.24 5.53 73.13 5.53L73.13 5.53L69.25 5.53L69.25 8.75L72.67 8.75Q73.96 8.75 74.21 8.68L74.21 8.68ZM79.98 4.48L77.34 2.58Q78.28 1.11 79.30 0L79.30 0L81.82 1.98Q81.32 2.60 80.88 3.20L80.88 3.20Q80.88 3.20 79.98 4.48L79.98 4.48ZM80.43 6.07L80.43 17.00Q80.43 18.01 80.47 18.32L80.47 18.32L77.50 18.32L77.50 6.07L80.43 6.07ZM82.13 18.32L86.39 12.07L82.24 6.07L85.91 6.07L88.08 9.81L90.42 6.07L93.83 6.07Q93.82 6.07 93.57 6.41L93.57 6.41L89.75 11.86L94.09 18.32L90.46 18.32L88.11 14.34L85.79 18.32L82.13 18.32Z" transform="translate(0, 4.906)"></path><line x1="103.08984375" y1="2%" x2="103.08984375" y2="98%" stroke="#01427c" stroke-linecap="round"></line><g fill="#f29b18" color="#f29b18" transform="translate(112.08984375 0) scale(0.58)"><svg width="50.0" height="49.0" x="0.0" y="0.0" viewBox="0 0 50 49"><path fill="currentColor" fill-rule="nonzero" d="M25 .01c6.72 0 12.8 2.72 17.2 7.12 4.4 4.4 7.12 10.48 7.12 17.2 0 5.21-1.64 10.04-4.43 14-2.5 3.54-5.36 5.99-9.29 7.9-3.2 1.55-6.8 2.43-10.6 2.43-3.6 0-7.01-.78-10.08-2.18-2.09-.95-2.73-1.34-4.52-2.69-.92-.69-1.79-1.44-2.6-2.26-.29-.29-.58-.59-.85-.9-.96-1.07-.5-.49-1.46-1.78A24.225 24.225 0 0 1 .68 24.32c0-6.72 2.72-12.8 7.12-17.2C12.2 2.72 18.28.01 25 .01zM4.36 12.74h41.28a23.626 23.626 0 0 0-3.9-5.14C37.45 3.32 31.54.67 25 .67 18.46.67 12.55 3.31 8.26 7.6a23.946 23.946 0 0 0-3.9 5.14zm41.5.41H4.14a23.82 23.82 0 0 0-1.94 4.82h45.6c-.47-1.69-1.12-3.31-1.94-4.82zm2.09 5.37H2.05c-.38 1.51-.62 3.08-.69 4.69h47.28a23.89 23.89 0 0 0-.69-4.69zm.71 5.36H1.34c0 .15-.01.3-.01.45 0 1.4.12 2.77.35 4.1h46.63c.23-1.33.35-2.7.35-4.1.01-.15 0-.3 0-.45zm-.5 5.37H1.84c.32 1.53.79 3 1.39 4.4h43.53c.6-1.4 1.07-2.87 1.4-4.4zm-1.84 5.38H3.68c.71 1.48 1.58 2.87 2.57 4.15h37.49c1-1.28 1.86-2.67 2.58-4.15zm-3.66 5.46H7.34c.3.33.61.66.92.97 1.09 1.09 2.28 2.07 3.57 2.93h26.34a23.889 23.889 0 0 0 4.49-3.9zm-7.01 5.38h-21.3C17.55 47.09 21.17 48 25 48s7.45-.91 10.65-2.53z"></path></svg></g></svg>